<svg viewBox="0 0 640 420" xmlns="http://www.w3.org/2000/svg">
  <defs>
    <pattern id="mapgrid" x="0" y="0" width="32" height="32" patternUnits="userSpaceOnUse">
      <circle cx="16" cy="16" r="0.7" fill="#1f2937"/>
    </pattern>
  </defs>

  <rect width="640" height="420" fill="#0a0e14"/>
  <rect width="640" height="420" fill="url(#mapgrid)"/>

  <g stroke="#161b22" stroke-width="0.5" fill="none">
    <line x1="0" y1="105" x2="640" y2="105"/>
    <line x1="0" y1="210" x2="640" y2="210"/>
    <line x1="0" y1="315" x2="640" y2="315"/>
    <line x1="160" y1="0" x2="160" y2="420"/>
    <line x1="320" y1="0" x2="320" y2="420"/>
    <line x1="480" y1="0" x2="480" y2="420"/>
  </g>

  <g font-family="ui-monospace, 'SF Mono', Menlo, Consolas, monospace" font-size="8" fill="#3d444c">
    <text x="8" y="103">52.0°N</text>
    <text x="8" y="208">51.5°N</text>
    <text x="8" y="313">51.0°N</text>
    <text x="158" y="412">1.0°W</text>
    <text x="318" y="412">0.0°</text>
    <text x="478" y="412">1.0°E</text>
  </g>

  <g transform="translate(320, 210)">
    <circle r="140" fill="none" stroke="#21262d" stroke-width="0.6" stroke-dasharray="2 4"/>
    <circle r="85" fill="none" stroke="#30363d" stroke-width="0.6" stroke-dasharray="2 4"/>
    <circle r="40" fill="none" stroke="#3d444c" stroke-width="0.6" stroke-dasharray="2 4"/>
  </g>

  <g stroke="#ff7849" fill="none">
    <line x1="320" y1="180" x2="320" y2="202" stroke-width="1"/>
    <line x1="320" y1="218" x2="320" y2="240" stroke-width="1"/>
    <line x1="290" y1="210" x2="312" y2="210" stroke-width="1"/>
    <line x1="328" y1="210" x2="350" y2="210" stroke-width="1"/>
  </g>
  <circle cx="320" cy="210" r="22" fill="none" stroke="#ff7849" stroke-width="0.7" opacity="0.4"/>
  <circle cx="320" cy="210" r="3.5" fill="#ff7849"/>

  <g font-family="ui-monospace, 'SF Mono', Menlo, Consolas, monospace" fill="#7d8590" font-size="9">
    <circle cx="160" cy="155" r="1.5" fill="#484f58"/>
    <text x="148" y="148" text-anchor="end">oxford</text>

    <circle cx="395" cy="135" r="1.5" fill="#484f58"/>
    <text x="403" y="132">cambridge</text>

    <circle cx="465" cy="270" r="1.5" fill="#484f58"/>
    <text x="473" y="267">canterbury</text>

    <circle cx="290" cy="320" r="1.5" fill="#484f58"/>
    <text x="285" y="335" text-anchor="end">brighton</text>

    <circle cx="195" cy="265" r="1.5" fill="#484f58"/>
    <text x="187" y="262" text-anchor="end">reading</text>
  </g>

  <g font-family="ui-monospace, 'SF Mono', Menlo, Consolas, monospace">
    <text x="330" y="198" font-size="11" fill="#e6edf3" font-weight="500" letter-spacing="1.5">LONDON</text>
    <text x="330" y="225" font-size="8.5" fill="#7d8590" letter-spacing="0.5">51.5074°N · 0.1278°W</text>
  </g>

  <g transform="translate(595, 35)" font-family="ui-monospace, monospace" font-size="8" fill="#7d8590">
    <line x1="0" y1="-15" x2="0" y2="15" stroke="#3d444c" stroke-width="0.7"/>
    <line x1="-15" y1="0" x2="15" y2="0" stroke="#3d444c" stroke-width="0.7"/>
    <polygon points="0,-15 -3,-9 3,-9" fill="#7d8590"/>
    <text x="0" y="-20" text-anchor="middle" fill="#adbac7" font-weight="500">N</text>
  </g>

  <g font-family="ui-monospace, 'SF Mono', Menlo, Consolas, monospace" font-size="8" fill="#484f58">
    <text x="18" y="20" letter-spacing="2">[ you are looking at: greater london area · epsg:4326 ]</text>
  </g>
</svg>
